<svg xmlns="http://www.w3.org/2000/svg" viewBox="0 0 198.43 198.43"><defs><style>.cls-1{fill:#ffde5a;}.cls-2{fill:#0099cd;}.cls-3{fill:#a1c518;}</style></defs><title>Recurso 7</title><g id="Capa_2" data-name="Capa 2"><g id="Capa_1-2" data-name="Capa 1"><rect width="198.43" height="198.43"/><path class="cls-1" d="M100.74,59.07A39.4,39.4,0,0,1,92.55,59a33.59,33.59,0,0,1-10.68-2.86,24.49,24.49,0,0,1-8.44-5.83,16.73,16.73,0,0,1-4.6-8.2,13.1,13.1,0,0,1,.62-7.94,13.67,13.67,0,0,1,6.71-6.58A14.35,14.35,0,0,1,82,25.8a12.63,12.63,0,0,1,7.58,1.61c2.16,1.32,3.23,3,5.09,6a36.4,36.4,0,0,1,2.61,5.09c.29.7.83,2,1.36,3.73a40.26,40.26,0,0,1,1.24,5.09,59.39,59.39,0,0,1,.62,6c.23,2.95.34,4.42.13,4.47s-.9-2-2.48-6.33c-1.15-3.13-2-5.41-3.23-8.07-1.5-3.21-2.25-4.81-3.73-6.46s-3.52-3.94-7-4.35A8.87,8.87,0,0,0,78,34.12a7.92,7.92,0,0,0-3,4.34,8.62,8.62,0,0,0,.62,5.34,13,13,0,0,0,3.48,5.09c1.18,1.12,2.65,1.9,5.59,3.48,2,1.05,3.46,1.73,6,2.85a34.54,34.54,0,0,0,3.6,1.49,26.55,26.55,0,0,0,4.59,1.12"/><path class="cls-1" d="M102.36,59.07a39.49,39.49,0,0,0,8.2-.12,33.59,33.59,0,0,0,10.68-2.86,24.58,24.58,0,0,0,8.44-5.83,16.73,16.73,0,0,0,4.59-8.2,13,13,0,0,0-.62-7.94,13.66,13.66,0,0,0-6.7-6.58,14.41,14.41,0,0,0-5.84-1.74,12.6,12.6,0,0,0-7.57,1.61c-2.16,1.32-3.23,3-5.09,6a35.31,35.31,0,0,0-2.61,5.09c-.3.7-.83,2-1.37,3.73a42.09,42.09,0,0,0-1.24,5.09c-.28,1.59-.39,3-.62,6s-.34,4.42-.12,4.47.9-2,2.48-6.33c1.14-3.13,2-5.41,3.23-8.07,1.5-3.21,2.25-4.81,3.72-6.46s3.53-3.94,7-4.35a8.84,8.84,0,0,1,6.2,1.62,7.82,7.82,0,0,1,3,4.34,8.62,8.62,0,0,1-.62,5.34A13.15,13.15,0,0,1,124,48.89c-1.18,1.12-2.65,1.9-5.59,3.48-2,1.05-3.46,1.73-6,2.85a34.54,34.54,0,0,1-3.6,1.49,26.77,26.77,0,0,1-4.59,1.12"/><rect class="cls-2" x="30.58" y="62.74" width="141.91" height="24.96"/><rect class="cls-3" x="38.4" y="91.42" width="124.78" height="72.14"/></g></g></svg>