<svg xmlns="http://www.w3.org/2000/svg" viewBox="0 0 198.43 198.43"><defs><style>.cls-1,.cls-4{fill:#0099ce;}.cls-2{fill:#74c8da;stroke:#a0c51d;}.cls-2,.cls-4{stroke-miterlimit:10;}.cls-3{fill:#a0c51d;}.cls-4{stroke:#3e5187;stroke-width:2px;}</style></defs><title>Recurso 5</title><g id="Capa_2" data-name="Capa 2"><g id="Capa_1-2" data-name="Capa 1"><rect width="198.43" height="198.43"/><path class="cls-1" d="M145.93,72.05c.78-.81,0-2.68-1.1-5.61A26.6,26.6,0,0,0,142,60.82a27.21,27.21,0,0,0-5.49-6,41.63,41.63,0,0,0-6.23-4.16c-3.1-1.82-3.39-1.68-6-3.29a28.5,28.5,0,0,1-5.74-4.28c-1.68-1.67-3.08-3.07-3.79-5.37a20.13,20.13,0,0,1-.49-4.88c0-1.29,0-1.05,0-4.65,0-1.85,0-2.44,0-3.78,0-.27,0-1.41.13-2.93.11-2,.17-3,.24-3.54.23-1.77.52-2.48.12-2.81s-.6,0-1.71.12a28,28,0,0,1-3.29-.12c-.71,0-1.21,0-2,0s-1.22,0-3.3.12c-2.39.11-2.63.11-3,.12-1,0-1.71,0-2.68,0-1.73-.06-1.66-.2-2.94-.24-1.67-.05-1.78.19-4.27.24H86.34c-1.1,0-2.2.07-3.3,0-.81,0-1.11-.1-1.34.13-.41.41.08,1.1,0,2.68,0,.74-.16.74-.24,1.71a13.7,13.7,0,0,0,0,2.32c.12,2.23,0,1.95.12,4.64.1,2.05.16,1.82.24,3.54a41.62,41.62,0,0,1,0,5.13c-.17,2.33-.25,3.5-.85,4.64a10.46,10.46,0,0,1-2.81,3.06,26.41,26.41,0,0,1-3.3,2.32c-1.19.74-2.08,1.22-3.66,2.07-2.35,1.27-2.53,1.27-3.91,2.08s-1.23.45-3.14,1.65a22.3,22.3,0,0,0-4.19,3,27,27,0,0,0-3,2.71,15,15,0,0,0-2.23,2.78,13.38,13.38,0,0,0-1.83,3.67,22.47,22.47,0,0,0-1,3.66c-.36,1.82-.07,1.2-.48,3.78-.16,1-.24,1.31,0,1.59.43.53,1.44.15,3.29-.12.45-.06,1.72-.12,4.28-.24,1.79-.09,3.14-.11,4.27-.13,1.34,0,2.87,0,4.88,0s2.42.11,4.52.13h2.57c2.49,0,3.74,0,4.15,0,2.12,0,3.75.07,5.13.12a49,49,0,0,0,5.13.12c1.26-.08,1.52-.18,3-.24s2.54,0,3.66,0c2.36.07,2.49.19,4.64.24,1,0,.59,0,3.54,0,2.66,0,3,0,4.4,0,.94,0,.79,0,2.93-.12,2.55-.1,2.33-.06,3.54-.12,2.56-.13,2.87-.26,4.52-.25,1.24,0,1.1.09,2.57.12,2.14.06,2.75-.09,4.88-.12,2.52,0,2.2.18,4.27.12,2.36-.06,2.61-.32,5-.36,1.64,0,2.95.06,3.79.12C144.42,72.1,145.34,72.67,145.93,72.05Z"/><rect class="cls-1" x="51.95" y="71.07" width="94.99" height="103.31" rx="12.83"/><rect class="cls-2" x="48.12" y="141.73" width="102.64" height="20.94" rx="4.63"/><rect class="cls-2" x="48.38" y="106.01" width="102.64" height="20.94" rx="4.63"/><rect class="cls-2" x="48.38" y="70.75" width="102.64" height="20.94" rx="4.63"/><rect class="cls-3" x="79.49" y="15.01" width="36.67" height="16.05"/><rect class="cls-4" x="70.39" y="91.2" width="59.48" height="51.63"/></g></g></svg>