<svg xmlns="http://www.w3.org/2000/svg" viewBox="0 0 198.43 198.43"><defs><style>.cls-1{fill:#a0c51d;}.cls-2{fill:#0099ce;}.cls-3{fill:#ffde5b;}.cls-3,.cls-4,.cls-5{stroke:#ef7a33;stroke-miterlimit:10;}.cls-4,.cls-5{fill:#fff;}.cls-5{stroke-width:2px;}</style></defs><title>Recurso 6</title><g id="Capa_2" data-name="Capa 2"><g id="Capa_1-2" data-name="Capa 1"><rect width="198.43" height="198.43"/><path class="cls-1" d="M168.33,139.58H39.11a4,4,0,0,1-4-4l.15-4h0l137.08.17h0v3.83A4,4,0,0,1,168.33,139.58Z"/><path class="cls-1" d="M136.8,44,41,43.89a5.93,5.93,0,0,0-5.93,5.92v80h0l101.69-.09h0V44Z"/><path class="cls-1" d="M167.33,129.82H138.86V43.89h28.47a5,5,0,0,1,5,5v80.94Z"/><path class="cls-2" d="M47.71,59.7h70.38a3.59,3.59,0,0,1,3.59,3.59v53.26a3.59,3.59,0,0,1-3.59,3.59H48.33a4.21,4.21,0,0,1-4.21-4.21V63.29A3.59,3.59,0,0,1,47.71,59.7Z"/><rect class="cls-2" x="128.25" y="56.9" width="4.03" height="66.04"/><rect class="cls-2" x="144.23" y="54.99" width="22.73" height="22.73" rx="4.6"/><rect class="cls-2" x="144.61" y="87.81" width="6.23" height="4.27" rx="1.92"/><rect class="cls-2" x="145.94" y="114.94" width="20.05" height="7.37" rx="3.31"/><rect class="cls-2" x="152.85" y="87.81" width="6.23" height="4.27" rx="1.92"/><rect class="cls-2" x="160.72" y="87.81" width="6.23" height="4.27" rx="1.92"/><rect class="cls-2" x="144.55" y="94.21" width="6.23" height="4.27" rx="1.92"/><rect class="cls-2" x="152.78" y="94.21" width="6.23" height="4.27" rx="1.92"/><rect class="cls-2" x="160.66" y="94.21" width="6.23" height="4.27" rx="1.92"/><rect class="cls-2" x="144.55" y="100.62" width="6.23" height="4.27" rx="1.92"/><rect class="cls-2" x="152.78" y="100.62" width="6.23" height="4.27" rx="1.92"/><rect class="cls-2" x="160.66" y="100.62" width="6.23" height="4.27" rx="1.92"/><path class="cls-3" d="M61.24,163a5.34,5.34,0,0,0,1.92-1.81,9.66,9.66,0,0,0,1.52-2.62A18.46,18.46,0,0,0,65.3,155a24.53,24.53,0,0,1,.57-2.9c.39-1.73.42-2.22.64-3.18.25-1.15.21-1.23.44-2.29a14.25,14.25,0,0,0,.32-3.2c0-.37,0-1.17,0-2.62-.06-2.29,0-2.51,0-3.35,0-1.48-.07-1.92,0-3a16.89,16.89,0,0,0-.66-5.27,31.64,31.64,0,0,0-1.8-5.12,57.15,57.15,0,0,0-5.6-8.9c-1.24-1.69-3.18-4-4-4.94a7.67,7.67,0,0,1-2.25-4.85c0-.75.08-1,.06-2.31,0-1.13,0-1.57,0-2.25-.18-3-.11-3.38-.19-4.47a3.19,3.19,0,0,0-.69-1.59c-.06-.07-.29-.23-1.47-.25-.4,0-.8,0-1.16,0a11.6,11.6,0,0,1-1.69,0c-.57,0-.61,0-1.89,0-.76,0-1,0-1.58,0-.85,0-.86,0-1.54,0s-.63,0-1.26,0a4.26,4.26,0,0,0-1.39,0c-.16,0-.88,0-1.21.55a3.36,3.36,0,0,0-.34,1.73c0,1.14.05,1.12.07,2s.05.65.07,1.52c0,.7,0,.75,0,1.87,0,.56,0,.88,0,2.33s0,1,0,1.46c0,.72.05,2,.09,2.94,0,0-.09,1.9-.09,2.58,0,.41.13-.08-.39,1.74a14.42,14.42,0,0,1-2.15,4.07,25.66,25.66,0,0,1-3.45,4.06c-2,2-2.18,1.79-3.31,3.17a16.64,16.64,0,0,0-2.48,4.1,19.45,19.45,0,0,0-1.29,4,26.81,26.81,0,0,0-.41,3.24c-.08,1.15-.05,1.35-.15,3.56a27.46,27.46,0,0,0,.54,7.22c.31,1.61.47,2.88,1,5.23.76,3.08.71,2.83,1,4.27a28.14,28.14,0,0,0,.74,3.28c.57,1.78,1.13,2.79,2.09,3.25a3.32,3.32,0,0,0,2.11.53c.79,0,1.53,0,2.39,0s1.13-.07,3.48,0c2.06,0,3.1,0,3.37,0,2.17,0,2.3,0,4.52,0s2.23,0,4.09,0,1.78,0,3.37,0c1.19,0,2.2-.07,3.83,0C60.07,163.37,60.54,163.29,61.24,163Z"/><rect class="cls-4" x="33.28" y="130.5" width="23.73" height="18.15"/><rect class="cls-4" x="40.36" y="90.06" width="10.71" height="4.91"/><polygon class="cls-4" points="25.96 82.15 33.42 84.16 33.42 75.81 25.96 78.27 25.96 82.15"/><path class="cls-4" d="M33.29,75.81l6.83-1a4,4,0,0,1,.49,0h9.06a10,10,0,0,1,3.75,1.1L61,80.64a1.51,1.51,0,0,1,.62,1.62l-.38,1.89a1.29,1.29,0,0,1-.73.95,6.42,6.42,0,0,1-1.81.46l-2.69,0A2,2,0,0,0,54.8,86l-4.91,3.74h-8.3l-3-5.53H33.29Z"/><path class="cls-4" d="M33.29,84.7,28.48,96.07c-.23.54,1.44.37,2.64.05a6.68,6.68,0,0,0,2.26-1.33l.65-.73c.61-.71,1.28-2.2,2.65-5.46l1.62-3.9Z"/><line class="cls-5" x1="37.34" y1="139.58" x2="52.96" y2="139.58"/></g></g></svg>