<svg xmlns="http://www.w3.org/2000/svg" viewBox="0 0 360.47 360.98"><defs><style>.cls-1{font-size:166px;fill:#ffde5a;stroke:#ffde5a;font-family:CenturyGothic, Century Gothic;letter-spacing:0.03em;}.cls-1,.cls-3,.cls-4{stroke-miterlimit:10;}.cls-2{font-size:22px;fill:#fff;stroke:#fff;stroke-width:0.5px;letter-spacing:0.03em;}.cls-3,.cls-4{fill:none;stroke-width:4px;}.cls-3{stroke:#73c7d5;}.cls-4{stroke:#c8d869;}</style></defs><title>Recurso 3</title><g id="Capa_2" data-name="Capa 2"><g id="Capa_1-2" data-name="Capa 1"><text class="cls-1" transform="translate(79.54 207.8)">SIT<tspan class="cls-2"><tspan x="7.85" y="44.4">Subdirección de</tspan><tspan x="-20.84" y="70.8">Información Territorial</tspan></tspan></text><path class="cls-3" d="M27.1,107.77c14.54-15.1,15-14.93,17-18.23C50.28,79.45,47.05,76.26,53.43,62c4-9.06,7.43-16.62,15-21.88,3.43-2.39,6.14-3.2,30-6.89C120,29.88,121.47,30,125.55,28c10.53-5.19,9.28-10,21.48-17.42C152.61,7.15,161.73,1.62,173,2c6.45.23,7.87,2.21,28.77,11.75C215.2,19.93,222.05,23,227.66,23.9c11.44,1.79,12.7-1.73,25.93-.41,8.34.84,19.2,1.92,27.55,9.32,5,4.44,3.82,6.46,13.37,23.91,6.06,11.07,9.09,16.6,13.37,21.47,8.8,10,12.7,8.18,23.9,19,7.41,7.18,14.43,14,16.62,24.31,1.34,6.33-.53,7.41-3.24,26.74-2.05,14.6-3.08,21.91-2,28.76,1.95,12.79,6.75,12.79,9.32,26.34,1,5.37,3.46,18.26-2.43,30.39-2.34,4.8-3.54,4.47-17.42,19.44-9.45,10.19-14.17,15.28-16.62,19.45-6,10.18-3.48,12.9-10.13,27.55-5.15,11.39-7.73,17.08-13.77,21.48-5.68,4.14-8.68,3-30.79,6.89-14.28,2.53-21.53,3.85-27.15,6.48-10.63,5-10,8.53-22.69,15.4-8.74,4.74-15.9,8.61-25.12,8.5-3.65,0-6.55-.69-28.36-10.94-19.13-9-20-9.94-25.12-10.94-11.67-2.28-13.18,1.58-27.15,0-8.2-.92-19.63-2.21-28.36-10.12-5-4.51-3.77-6.36-13.37-23.91-6.59-12-9.88-18.06-15-23.5-8-8.5-10.72-6.68-21.07-16.21-8.11-7.46-15.22-14-17.69-24.15-1-4.11-1.76-7.85,3.1-28.92s3.47-23.3,3.24-25.93c-1.1-12.95-6.15-13.58-8.5-28C7.06,150.32,5,137.8,10.89,126,11.71,124.36,12.68,122.73,27.1,107.77Z"/><path class="cls-4" d="M12,159.84c9-18.92,9.53-18.91,10.4-22.67,2.67-11.52-1.4-13.53.15-29.09,1-9.86,1.8-18.11,7.32-25.49,2.51-3.35,4.82-5,26.28-16C75.55,56.62,77,56.23,80.23,53c8.35-8.25,5.63-12.44,14.88-23.31,4.23-5,11.13-13.08,21.92-16.25,6.19-1.82,8.17-.39,31,2.07,14.73,1.59,22.21,2.37,27.8,1.43,11.43-1.91,11.51-5.64,24.48-8.56,8.18-1.84,18.83-4.24,29.09.15,6.15,2.63,5.66,4.92,20.23,18.46,9.24,8.59,13.86,12.89,19.46,16.16,11.51,6.73,14.63,3.75,28.69,10.53,9.3,4.48,18.11,8.73,23.44,17.83,3.27,5.58,1.83,7.2,5.36,26.39,2.66,14.51,4,21.76,7.15,27.94,5.89,11.52,10.44,10,17.15,22,2.66,4.78,9.05,16.24,7.28,29.6-.69,5.3-1.94,5.37-10.39,24-5.75,12.64-8.62,19-9.63,23.69-2.46,11.54.76,13.34-.92,29.34-1.3,12.43-2,18.64-6.29,24.73-4.09,5.72-7.3,5.54-27.05,16.25-12.75,6.91-19.21,10.45-23.72,14.71-8.51,8.07-6.82,11.26-16.67,21.77-6.8,7.26-12.36,13.19-21.15,16-3.48,1.11-6.43,1.4-30.37-1.43-21-2.49-22.15-3.12-27.29-2.46-11.78,1.52-12,5.66-25.75,8.57-8.08,1.71-19.33,4.09-30.11-.66-6.14-2.71-5.59-4.85-20.23-18.47-10-9.35-15.08-14-21.64-17.57-10.27-5.55-12.28-2.95-25.11-8.73-10.05-4.53-18.86-8.47-24.4-17.34-2.25-3.59-4.15-6.9-6.19-28.42s-4.06-23.2-5.1-25.63C21,223.89,16,224.89,9.25,212,6.4,206.54.49,195.3,2.36,182.25,2.61,180.44,3,178.58,12,159.84Z"/></g></g></svg>