<svg xmlns="http://www.w3.org/2000/svg" viewBox="0 0 1700 413"><defs><style>.cls-1{fill:#d6d6d6;}.cls-2{font-size:51px;fill:#1c6383;font-family:CenturyGothic-Italic, Century Gothic;font-style:italic;letter-spacing:0.1em;}.cls-3{font-size:60px;font-family:CenturyGothic-BoldItalic, Century Gothic;font-weight:700;letter-spacing:0.1em;}.cls-4{fill:#626d73;}.cls-5{fill:#94caff;}.cls-15,.cls-6{fill:#fff;}.cls-16,.cls-6{stroke:#000;}.cls-10,.cls-11,.cls-12,.cls-14,.cls-15,.cls-16,.cls-17,.cls-18,.cls-19,.cls-6,.cls-7,.cls-8{stroke-miterlimit:10;}.cls-17,.cls-6{stroke-width:2px;}.cls-7,.cls-8{fill:#fff494;stroke:#ffa20a;}.cls-7{stroke-width:0.75px;}.cls-8{stroke-width:0.5px;}.cls-9{fill:#ff9c55;}.cls-10{fill:#de5c1f;stroke:#de5c1f;}.cls-11,.cls-13{fill:#6a4d00;}.cls-11,.cls-17,.cls-19{stroke:#6a4d00;}.cls-12{fill:#ffe4bf;stroke:#ffe4bf;}.cls-14,.cls-21{fill:#f4000d;}.cls-14{stroke:#f4000d;}.cls-15{stroke:#fff;}.cls-17,.cls-18,.cls-19{fill:none;}.cls-18{stroke:#f40081;}.cls-20{fill:#fff06a;}</style></defs><title>Recurso 24</title><g id="Capa_2" data-name="Capa 2"><g id="Capa_1-2" data-name="Capa 1"><rect class="cls-1" width="1700" height="413"/><text class="cls-2" transform="translate(140.71 101.85)">Esta semana la <tspan class="cls-3" x="464.73" y="0">LIMPIEZA</tspan><tspan x="765.88" y="0" xml:space="preserve"> les corresponde a:</tspan></text><path class="cls-4" d="M1548.86,284.33H1391.37a4.62,4.62,0,0,1-4.87-4.33l.18-4.34h0l167.06.18h0V280A4.62,4.62,0,0,1,1548.86,284.33Z"/><path class="cls-4" d="M1511.52,171l-117.76-.09a7.21,7.21,0,0,0-7.29,7.12v96.11h0l125-.11h0V171Z"/><path class="cls-4" d="M1548,274.11h-33.1V170.88H1548a5.91,5.91,0,0,1,5.81,6v97.22Z"/><path class="cls-5" d="M1404.15,185.59h95.34a3.59,3.59,0,0,1,3.59,3.59v73a3.59,3.59,0,0,1-3.59,3.59h-94.72a4.21,4.21,0,0,1-4.21-4.21V189.17A3.59,3.59,0,0,1,1404.15,185.59Z"/><rect x="1521.78" y="181.21" width="25.28" height="25.03" rx="4.6"/><rect x="1521.22" y="216.37" width="7.51" height="5.09" rx="1.92"/><rect x="1522.45" y="253.67" width="23.82" height="8.67" rx="3.31"/><rect x="1531.14" y="216.37" width="7.51" height="5.09" rx="1.92"/><rect x="1540.63" y="216.37" width="7.51" height="5.09" rx="1.92"/><rect x="1521.14" y="224.01" width="7.51" height="5.09" rx="1.92"/><rect x="1531.06" y="224.01" width="7.51" height="5.09" rx="1.92"/><rect x="1540.55" y="224.01" width="7.51" height="5.09" rx="1.92"/><rect x="1521.14" y="231.65" width="7.51" height="5.09" rx="1.92"/><rect x="1531.06" y="231.65" width="7.51" height="5.09" rx="1.92"/><rect x="1540.55" y="231.65" width="7.51" height="5.09" rx="1.92"/><path class="cls-6" d="M1427.66,237.7c.69-.18,2.57-.65,5.38-1.12,3.53-.59,6.57-.85,8.53-1,2.46-.21,6.08-.5,11-.51,4.66,0,8.24.27,10,.41,2,.16,3.6.33,4.27.4.88.1,3.71.44,7,1.07a63.2,63.2,0,0,1,6.31,1.47,31.66,31.66,0,0,1,4.45,1.62,16,16,0,0,1,3,1.77,7.62,7.62,0,0,1,1.85,1.68,2.61,2.61,0,0,1,.37,2.33,3.93,3.93,0,0,1-1.11,2.13,13.73,13.73,0,0,1-4.82,2.94,45.6,45.6,0,0,1-7.24,2.23c-3.44.79-6.54,1.23-7.61,1.37-.77.1-3.16.41-6.49.66-1.86.13-4.67.3-8.17.35-2.39,0-6.06.08-10.57-.25-3-.22-5.07-.51-7.24-.81s-5-.71-8.35-1.47a40,40,0,0,1-8.16-2.64,8.72,8.72,0,0,1-3.71-2.89,3.35,3.35,0,0,1-.74-2.63,4.69,4.69,0,0,1,1.48-2.49,9.7,9.7,0,0,1,2.23-1.57,28,28,0,0,1,3.89-1.62A40.73,40.73,0,0,1,1427.66,237.7Z"/><path class="cls-7" d="M1503.07,242.91h0a19,19,0,0,0-19-19h0a19,19,0,0,0,19-19h0a19,19,0,0,0,19,19h0A19,19,0,0,0,1503.07,242.91Z"/><path class="cls-8" d="M1491.34,240.53h0a5,5,0,0,0-5-5h0a5,5,0,0,0,5-5h0a5,5,0,0,0,5,5h0A5,5,0,0,0,1491.34,240.53Z"/><path class="cls-8" d="M1514.81,219.14h0a5,5,0,0,0-5-5h0a5,5,0,0,0,5-5h0a5,5,0,0,0,5,5h0A5,5,0,0,0,1514.81,219.14Z"/><path class="cls-7" d="M1397,183.06h0a14,14,0,0,0-14-14h0a14,14,0,0,0,14-14h0a14,14,0,0,0,14,14h0A14,14,0,0,0,1397,183.06Z"/><path class="cls-7" d="M1444.86,313.86h0a14,14,0,0,0-14-14h0a14,14,0,0,0,14-14h0a14,14,0,0,0,14,14h0A14,14,0,0,0,1444.86,313.86Z"/><path class="cls-9" d="M1422.6,258.23l1.86-1.58a4.92,4.92,0,0,0,1.71-3.26l.58-5.38a5,5,0,0,0,0-1.09l-1.06-9.91a5,5,0,0,0-1-2.53l-1.45-1.89a4.79,4.79,0,0,0-2.78-1.75l-3.68-.76a4.73,4.73,0,0,1-1.83-.82l-5.13-3.79-2.2-1.52a6.28,6.28,0,0,0-3.57-1.11h-4.91a6.86,6.86,0,0,0-3.11.75l-2.56,1.33a5.5,5.5,0,0,0-1.84,1.52l-2.78,3.52a4.94,4.94,0,0,0-.51.75l-2,3.52a7.92,7.92,0,0,0-1,2.93l-.42,3.23a9.44,9.44,0,0,0,.23,3.55l.21.77a10.19,10.19,0,0,0,2.16,4.1l2,2.3a6.47,6.47,0,0,0,.58.59l1.67,1.48a4.91,4.91,0,0,1,1.41,2.18h0a4.82,4.82,0,0,0,3.52,3.25l2.8.62a4.2,4.2,0,0,0,1,.11h19.06A4.66,4.66,0,0,0,1422.6,258.23Z"/><path class="cls-10" d="M1317.73,375.23c1,.09,1.58-.37,4-2,4.3-2.85,4.38-2.59,6-4,.69-.59.36-.37,3.34-3.31,3.25-3.21,3.41-3.24,4.68-4.63,2.39-2.62,1.71-2.37,3.34-4,1.25-1.23,2.15-1.86,2-2.65-.08-.44-.39-.44-2-2-.45-.43-.89-.88-1.33-1.32l-1.34-1.32-2-2-2-2a24.21,24.21,0,0,1-2-2c-.7-.88-.51-.92-1.33-2-.41-.52-.38-1.28-1.34-2-.7-.52,0-.66-.67-.66-.49,0-1.34,1.35-1.33,3.31a9.3,9.3,0,0,1-.67,4c-.55,1.19-.9,1-2,2.64-.92,1.39-.8,1.72-2,4a24.39,24.39,0,0,1-2,3.31,19,19,0,0,1-3.34,3.31c-4.17,3.48-5.87,3.71-6,5.3-.1,1,.53,2,1.33,3.31.6.93.91,1.08,2,2.64a23.85,23.85,0,0,0,1.33,2A5.77,5.77,0,0,0,1317.73,375.23Z"/><polygon class="cls-11" points="1309.04 365.97 1302.35 369.94 1315.72 384.5 1317.06 375.24 1309.04 365.97"/><polygon class="cls-11" points="1359.16 375.9 1363.17 381.19 1377.88 369.28 1366.52 367.95 1359.16 375.9"/><path class="cls-12" d="M1380.55,260.74l3.34,6.62-24.73,22.5-2.5-3.72a1.86,1.86,0,0,1-.24-.54l-1.18-4.66a2.69,2.69,0,0,1-.09-1l1.34-3.31Z"/><path class="cls-12" d="M1284.31,253.46a34.12,34.12,0,0,0,2.67,5.29,45.63,45.63,0,0,0,4.68,6c2.72,3.13,4.07,4.69,5.35,6a41.56,41.56,0,0,0,12,8.6c6.92,3.16,13.08,3.25,18,3.31a47.81,47.81,0,0,0,12.7-1.32,46.44,46.44,0,0,0,12.7-5.3,48.07,48.07,0,0,0,12.7-11.25,44.77,44.77,0,0,0,9.36-19.85,43,43,0,0,0-2-23.17c-.82-2.08-4.79-12.13-12-16.54C1336,190.2,1281,244.42,1284.31,253.46Z"/><path class="cls-13" d="M1319.4,221.36c.32.36.31,2.92,0,6-.2,1.87-.67,1.6-.67,5.29a16.15,16.15,0,0,0,.67,5.3,17.42,17.42,0,0,0,2,5.29,16.06,16.06,0,0,0,2,3.31,28.58,28.58,0,0,0,3.34,3.31c1,.84,1.42,1.12,1.34,1.32-.17.41-2.1.49-5.35,0-3.59-.54-3.48-.84-6-1.32-4.15-.79-4.49-1.77-6-1.32s-2.49,2.25-4.68,5.95a29.27,29.27,0,0,0-2.67,5.3A28.52,28.52,0,0,0,1302,265a25.83,25.83,0,0,0-.67,6c.06,2-.26,3.13-.67,3.31s-2.62-1.7-4-3.31c-1.89-2.21,0,0-3.34-4-2.25-2.68-4.32-4.44-5.35-6a18.11,18.11,0,0,1-3.34-5.29C1281.46,246.19,1317.15,218.9,1319.4,221.36Z"/><path class="cls-14" d="M1324.41,215.74c7.91-2.94,19.45-7.25,33.42-12.58,23.76-9.06,26.26-10.27,26.06-11.25-.51-2.54-19.34-3.19-33.41,4-1.22.62-2.94,1.57-4.94,2.8s-4.3,2.73-6.67,4.47a104.37,104.37,0,0,0-10.24,8.62c-6.79,6.31-9.92,9.73-16.25,15.88s-16,15.42-28.07,26.47l-9.8-19.4a6.3,6.3,0,0,1-.6-3.75l1.38-9.09a6.64,6.64,0,0,1,1.9-3.73l36.18-35.83a8,8,0,0,1,9.65-1.19l26.12,15.41"/><path class="cls-15" d="M1341.85,281.42l7.31-2.68a1.69,1.69,0,0,0,.28-.12l5.28-2.66.68,8.19,1.35,3.41,1.36,2.73,1.35,2.72,2.71,4.1h-8.8c-.78.2-.68-.13-.68.68l-.68,1.36-.55,1a1.6,1.6,0,0,1-.41.67h0a9.56,9.56,0,0,0-1.75,2.44h0l-.68,1.37h0a9.13,9.13,0,0,1-1.74,2.44l-.29.29-.68.68h0a5.61,5.61,0,0,1-1.53,1.11l-.19.1a1.44,1.44,0,0,1-.65.15h0a4.3,4.3,0,0,1-1.92-.45l-.45-.23-.84-.42a1.76,1.76,0,0,1-.77-.78h0a13.27,13.27,0,0,1-.72-1.74l0-.06a15.72,15.72,0,0,0-.87-2.12l-.16-.34-.07-.13a6.5,6.5,0,0,1-.61-3.28h0V293h0a12.8,12.8,0,0,1,.64-4l0-.11.32-1a14.58,14.58,0,0,1,.86-2.09h0a5.7,5.7,0,0,0,.29-.72l.13-.38a8.61,8.61,0,0,0,.43-2.66h0Z"/><path class="cls-10" d="M1336.11,282.25c-1.07.45,0,1.75,0,4.63,0,.58-.23,2.16-.67,5.3s-.49,3.25-.67,4.63c-.38,2.8-.41,3.74-.67,6-.36,3.15-.45,2.68-1.34,8.6-.42,2.87-1.46,5.7-1.33,8.6,0,.9-.85,1.89-1.67,3s-.66,1.14-1.67,2.32a8.26,8.26,0,0,0-1.34,3.31,21.8,21.8,0,0,0-.67,3.31,12.87,12.87,0,0,0,0,4.63,12.32,12.32,0,0,0,1.34,3.31,21.4,21.4,0,0,0,2.67,4c.71.83.83.86,3.34,3.31,2,2,1.72,1.74,3.34,3.31a51.36,51.36,0,0,1,4,4c1,1.13.77,1.07,2,2.64,1.84,2.34,2.36,2.55,4.68,5.3,1.16,1.37.87,1.13,2.67,3.31s2,2.32,3.34,4c1.18,1.46,1.54,2,2.68,3.31,2,2.33,2.69,2.7,3.34,2.65.44,0,1-.47,2-1.33a15.7,15.7,0,0,0,2-2,7.08,7.08,0,0,0,1.34-2c.39-1.07.14-1.83,0-3.31-.26-2.56.34-2.67,0-4-.26-1-.51-.91-1.68-3-1.26-2.25-1.05-2.47-2-4s-1.07-1.21-2.67-3.31a28.56,28.56,0,0,1-2.68-4c-1-1.93-.68-1.92-2-4.63-1.06-2.16-1.45-2.48-1.34-3.31.16-1.2,1.1-1.54,2.67-3.31a18.57,18.57,0,0,0,2.68-4,16.85,16.85,0,0,0,2-6c.08-.59,0-.43,0-4.63V303.1a25.06,25.06,0,0,1,0-4c.16-.93.39-1.63,0-2s-.6-.08-2,0c-1.12.06-2.28,0-2.68,0-1.05,0-1.11-.1-1.33,0-.79.35-.72,1.32-1.34,2.65-.53,1.15-.78.85-2,2.64s-1,2-2,3.31a9.34,9.34,0,0,1-2,2,5.3,5.3,0,0,1-3.35,1.32,4.83,4.83,0,0,1-3.34-2c-.69-.92-.58-1.42-1.33-4-.8-2.7-1-2.53-1.34-4-.12-.57-.28-1.55,0-5.3a33.68,33.68,0,0,1,.67-6c1.13-3.7,2.62-4.95,2-5.95S1338.45,281.26,1336.11,282.25Z"/><path class="cls-16" d="M1347.53,224.66a7.05,7.05,0,0,1,.92-1.12,5.39,5.39,0,0,1,1.45-1,4.28,4.28,0,0,1,1.87-.51,4,4,0,0,1,1.71.41,4.21,4.21,0,0,1,.73.41,6.24,6.24,0,0,1,1.21,1.07,8.18,8.18,0,0,1,1.07,1.47,9.77,9.77,0,0,1,.76,1.63,12.57,12.57,0,0,1,.51,1.78,14.78,14.78,0,0,1,.32,1.68,13.63,13.63,0,0,1,.06,2.34,15.64,15.64,0,0,1-.19,2.14,13.61,13.61,0,0,1-.82,2.95,10.71,10.71,0,0,1-1.24,2.24,6.64,6.64,0,0,1-1.3,1.37,5.41,5.41,0,0,1-1.11.66,4.25,4.25,0,0,1-1.39.36,3.56,3.56,0,0,1-1.8-.26,4.93,4.93,0,0,1-1.24-.81,7.82,7.82,0,0,1-1.43-1.48,9.59,9.59,0,0,1-1.39-2.64,13.34,13.34,0,0,1-.63-2.9,16.13,16.13,0,0,1-.13-2.65,16.88,16.88,0,0,1,.25-2.49,15.12,15.12,0,0,1,.38-1.58,12.29,12.29,0,0,1,.67-1.63A10.15,10.15,0,0,1,1347.53,224.66Z"/><path class="cls-17" d="M1336.77,233.94a12.69,12.69,0,0,1-.39-3.38,13.23,13.23,0,0,1,.64-3.89,13.42,13.42,0,0,1,2.74-4.93,14.63,14.63,0,0,1,3.7-3"/><path class="cls-18" d="M1359.1,261.32a13.07,13.07,0,0,1-3.2,1.25,14.47,14.47,0,0,1-9.48-1,14.71,14.71,0,0,1-3.9-2.77"/><path class="cls-9" d="M1523.31,190.51l-1.86-1.58a4.94,4.94,0,0,1-1.71-3.26l-.58-5.38a5,5,0,0,1,0-1.09l1.06-9.92a5.08,5.08,0,0,1,1-2.53l1.46-1.88a4.63,4.63,0,0,1,2.78-1.75l3.67-.77a4.56,4.56,0,0,0,1.84-.82l5.12-3.78,2.2-1.52a6.29,6.29,0,0,1,3.57-1.12h4.92a6.7,6.7,0,0,1,3.1.76l2.56,1.32a5.74,5.74,0,0,1,1.84,1.52l2.79,3.52a7.52,7.52,0,0,1,.5.75l2,3.52a8,8,0,0,1,1,2.93l.42,3.24a9.39,9.39,0,0,1-.23,3.54l-.2.78a10.28,10.28,0,0,1-2.17,4.1l-2,2.29a6.55,6.55,0,0,1-.58.6l-1.67,1.47a5,5,0,0,0-1.41,2.18h0a4.85,4.85,0,0,1-3.52,3.26l-2.8.62a4.79,4.79,0,0,1-1,.11h-19.05A4.67,4.67,0,0,1,1523.31,190.51Z"/><path class="cls-10" d="M1628.19,305.51c-1,.09-1.59-.38-4-2-4.31-2.85-4.39-2.58-6-4-.69-.58-.36-.36-3.34-3.31-3.25-3.2-3.41-3.24-4.68-4.63-2.39-2.61-1.7-2.37-3.34-4-1.25-1.22-2.15-1.85-2-2.65.08-.43.39-.43,2-2l1.34-1.33,1.33-1.32,2-2,2-2a22,22,0,0,0,2-2c.7-.87.51-.92,1.33-2,.41-.52.38-1.28,1.34-2,.7-.51,0-.66.67-.66.49,0,1.34,1.36,1.34,3.31a9.12,9.12,0,0,0,.66,4c.55,1.19.91,1,2,2.65a41.59,41.59,0,0,1,2,4,24.39,24.39,0,0,0,2,3.31,19.36,19.36,0,0,0,3.34,3.31c4.17,3.47,5.87,3.71,6,5.29.1,1.05-.54,2-1.34,3.31-.59.94-.91,1.09-2,2.65a22.87,22.87,0,0,1-1.34,2A5.73,5.73,0,0,1,1628.19,305.51Z"/><polygon class="cls-11" points="1636.88 296.24 1643.56 300.21 1630.19 314.77 1628.86 305.51 1636.88 296.24"/><polygon class="cls-11" points="1586.75 306.17 1582.74 311.47 1568.03 299.55 1579.39 298.23 1586.75 306.17"/><path class="cls-12" d="M1565.36,191l-3.34,6.62,24.73,22.5,2.5-3.72a1.54,1.54,0,0,0,.24-.54l1.18-4.65a2.69,2.69,0,0,0,.09-1l-1.34-3.31Z"/><path class="cls-12" d="M1661.61,183.73a34.53,34.53,0,0,1-2.68,5.3,45.4,45.4,0,0,1-4.68,6c-2.71,3.12-4.07,4.69-5.34,5.95a41.64,41.64,0,0,1-12,8.61c-6.93,3.16-13.09,3.24-18.05,3.3a45.72,45.72,0,0,1-25.4-6.61,48.22,48.22,0,0,1-12.7-11.25,44.76,44.76,0,0,1-9.36-19.86,43.09,43.09,0,0,1,2-23.16c.82-2.08,4.79-12.14,12-16.55C1610,120.47,1665,174.7,1661.61,183.73Z"/><path class="cls-13" d="M1626.52,151.64c-.33.35-.32,2.91,0,6,.19,1.87.66,1.61.66,5.3a16.57,16.57,0,0,1-.66,5.29,17.86,17.86,0,0,1-2,5.3,16.78,16.78,0,0,1-2,3.31,29,29,0,0,1-3.35,3.3c-1,.84-1.41,1.12-1.33,1.33.16.4,2.09.49,5.34,0,3.59-.54,3.48-.84,6-1.33,4.15-.79,4.49-1.77,6-1.32s2.5,2.26,4.68,6a25.59,25.59,0,0,1,4,10.59,25.69,25.69,0,0,1,.67,6c-.06,2,.27,3.14.67,3.31s2.63-1.69,4-3.31c1.89-2.21,0,0,3.34-4,2.26-2.68,4.33-4.43,5.35-6a18,18,0,0,0,3.34-5.3C1664.45,176.47,1628.76,149.17,1626.52,151.64Z"/><path class="cls-14" d="M1621.5,146c-7.91-2.94-19.45-7.25-33.42-12.57-23.75-9.07-26.26-10.28-26.06-11.25.51-2.55,19.34-3.2,33.42,4,1.22.62,2.93,1.57,4.94,2.79s4.29,2.74,6.67,4.47a104.19,104.19,0,0,1,10.23,8.62c6.79,6.32,9.92,9.73,16.25,15.88s16,15.43,28.08,26.48l9.79-19.4a6.24,6.24,0,0,0,.6-3.75l-1.38-9.1a6.66,6.66,0,0,0-1.89-3.72l-36.19-35.83a8,8,0,0,0-9.64-1.19l-26.13,15.41"/><path class="cls-15" d="M1604.06,211.69l-7.31-2.67-.27-.12-5.29-2.66-.68,8.18-1.35,3.41-1.36,2.73-1.35,2.73-2.71,4.09h8.81c.77.21.67-.12.67.68l.68,1.37.55,1a1.79,1.79,0,0,0,.41.67h0a9.39,9.39,0,0,1,1.75,2.44h0l.68,1.36h0a9.44,9.44,0,0,0,1.75,2.45l.28.28.68.68h0a5.8,5.8,0,0,0,1.53,1.12l.2.1a1.43,1.43,0,0,0,.64.15h0a4.24,4.24,0,0,0,1.92-.46l.45-.22.84-.43a1.71,1.71,0,0,0,.77-.78h0a13.27,13.27,0,0,0,.72-1.74l0-.05a16.4,16.4,0,0,1,.87-2.13l.17-.33.06-.14a6.36,6.36,0,0,0,.61-3.27h0v-6.82h0a12.58,12.58,0,0,0-.64-4l0-.1-.33-1a15.65,15.65,0,0,0-.85-2.08h0a5.1,5.1,0,0,1-.3-.73l-.13-.38a8.5,8.5,0,0,1-.43-2.65h0Z"/><path class="cls-10" d="M1609.81,212.52c1.06.45,0,1.75,0,4.64,0,.58.22,2.16.66,5.29s.49,3.25.67,4.63c.38,2.8.42,3.74.67,6,.37,3.16.46,2.68,1.34,8.6.43,2.87,1.46,5.71,1.33,8.61,0,.89.85,1.88,1.68,3a25,25,0,0,0,1.67,2.31,8.43,8.43,0,0,1,1.33,3.31,21,21,0,0,1,.67,3.31,12.87,12.87,0,0,1,0,4.63,12.48,12.48,0,0,1-1.33,3.31,21.45,21.45,0,0,1-2.68,4c-.7.84-.83.86-3.34,3.31-2,2-1.72,1.74-3.34,3.31a53.28,53.28,0,0,0-4,4c-1,1.13-.77,1.08-2,2.65-1.84,2.33-2.36,2.55-4.68,5.29-1.16,1.38-.87,1.13-2.67,3.31s-2,2.32-3.34,4c-1.18,1.47-1.54,2-2.67,3.31-2,2.34-2.7,2.7-3.35,2.65-.44,0-1-.46-2-1.32a15.51,15.51,0,0,1-2-2,6.77,6.77,0,0,1-1.33-2c-.4-1.08-.15-1.83,0-3.31.25-2.57-.35-2.67,0-4,.25-1,.51-.92,1.67-3,1.26-2.25,1-2.47,2-4s1.07-1.22,2.68-3.31a30.16,30.16,0,0,0,2.67-4c1.05-1.94.68-1.93,2-4.64,1.06-2.16,1.45-2.48,1.34-3.31-.15-1.19-1.1-1.53-2.67-3.3a19.11,19.11,0,0,1-2.68-4,17.28,17.28,0,0,1-2-5.95c-.08-.59,0-.43,0-4.63V233.37a25.06,25.06,0,0,0,0-4c-.15-.93-.38-1.62,0-2s.61-.07,2,0a25.54,25.54,0,0,0,2.68,0c1,0,1.11-.1,1.33,0,.79.35.72,1.32,1.34,2.65.54,1.16.79.86,2,2.65s1,2,2,3.31a9.18,9.18,0,0,0,2,2,5.28,5.28,0,0,0,3.34,1.33,4.79,4.79,0,0,0,3.34-2c.69-.92.58-1.41,1.34-4s1-2.53,1.33-4c.12-.56.28-1.55,0-5.29a35.12,35.12,0,0,0-.66-6c-1.14-3.71-2.63-5-2-6S1607.47,211.53,1609.81,212.52Z"/><path class="cls-16" d="M1598.38,154.93a7.05,7.05,0,0,0-.92-1.12,5.08,5.08,0,0,0-1.45-1,4,4,0,0,0-1.87-.51,3.83,3.83,0,0,0-1.71.41,4.87,4.87,0,0,0-.73.4,6.65,6.65,0,0,0-1.21,1.07,8.37,8.37,0,0,0-1.07,1.48,10.18,10.18,0,0,0-.76,1.62,13,13,0,0,0-.51,1.78,15.67,15.67,0,0,0-.32,1.68,14.75,14.75,0,0,0-.06,2.34,17.27,17.27,0,0,0,.19,2.14,13.61,13.61,0,0,0,.82,2.95,10.94,10.94,0,0,0,1.24,2.24,6.92,6.92,0,0,0,1.3,1.37,4.88,4.88,0,0,0,1.11.67,4.64,4.64,0,0,0,1.39.35,3.47,3.47,0,0,0,1.81-.25,4.8,4.8,0,0,0,1.23-.82,7.69,7.69,0,0,0,1.43-1.47,9.7,9.7,0,0,0,1.39-2.65,14.13,14.13,0,0,0,.64-2.9,16.9,16.9,0,0,0,.12-2.64,17.07,17.07,0,0,0-.25-2.5,12.85,12.85,0,0,0-.38-1.57,12.29,12.29,0,0,0-.67-1.63A9.73,9.73,0,0,0,1598.38,154.93Z"/><path class="cls-17" d="M1609.14,164.21a13.06,13.06,0,0,0,.4-3.38,13.75,13.75,0,0,0-.65-3.89,13.42,13.42,0,0,0-2.74-4.93,14.34,14.34,0,0,0-3.7-3"/><path class="cls-19" d="M1586.82,191.6a13.21,13.21,0,0,0,3.19,1.25,14.39,14.39,0,0,0,9.48-1,14.48,14.48,0,0,0,3.9-2.76"/><path class="cls-20" d="M1386.05,270.14l-10-10.88a.69.69,0,0,1,.17-1.06l2.74-1.56a.76.76,0,0,0,.21-.19l5.15-7,.09-.16,2.11-5.61a.51.51,0,0,1,.09-.16l4.9-6.64a1,1,0,0,1,1.37-.2l0,0a.9.9,0,0,1,.31,1l-1.06,2.88s0,0,0,0l-1.24,2.78a1.31,1.31,0,0,0,.22,1.4l.18.2a1.21,1.21,0,0,0,1.57.21l2.11-1.38a.18.18,0,0,0,.07,0l3.46-2.92,4.57-3.72,3.1-2.56a1.53,1.53,0,0,1,1.91,0l.08.06a1.31,1.31,0,0,1,.18,1.92l-5.8,6.41a.62.62,0,0,0,0,.84h0a.61.61,0,0,0,.77.12l5.66-3.38,3.44-2.07a1.7,1.7,0,0,1,2.2.38l.18.22a1.69,1.69,0,0,1-.28,2.39l-3.48,2.69-.07.05-4.94,2.9a1,1,0,0,0-.48,1h0a.89.89,0,0,0,1.21.72l4-1.57.07,0,4-1.06a1.26,1.26,0,0,1,1.53.9l.06.23a1.36,1.36,0,0,1-.82,1.61l-4,1.55-4,1.8a1.38,1.38,0,0,0-.76,1.62h0a1.1,1.1,0,0,0,1.46.74l4-1.54,1.28-.57a1.65,1.65,0,0,1,2.27,1.16l0,.24a1.93,1.93,0,0,1-1.15,2.22l-7.8,3.14-5.71,2.44-.06,0-6.74,2.2a.76.76,0,0,0-.23.13l-7.17,6.11A.67.67,0,0,1,1386.05,270.14Z"/><path class="cls-21" d="M1602.31,131.79a1.5,1.5,0,0,0,0-3,1.5,1.5,0,0,0,0,3Z"/><path class="cls-21" d="M1605,134.46a1.5,1.5,0,0,0,0-3,1.5,1.5,0,0,0,0,3Z"/><path class="cls-21" d="M1603.29,133.25a1.5,1.5,0,0,0,0-3,1.5,1.5,0,0,0,0,3Z"/><path class="cls-21" d="M1606.72,135.67a1.5,1.5,0,0,0,0-3,1.5,1.5,0,0,0,0,3Z"/><path class="cls-21" d="M1608.92,137.37a1.5,1.5,0,0,0,0-3,1.5,1.5,0,0,0,0,3Z"/><path class="cls-21" d="M1610.88,138.58a1.5,1.5,0,0,0,0-3,1.5,1.5,0,0,0,0,3Z"/><path class="cls-21" d="M1612.84,140.28a1.5,1.5,0,0,0,0-3,1.5,1.5,0,0,0,0,3Z"/><path class="cls-21" d="M1614.8,142a1.5,1.5,0,0,0,0-3,1.5,1.5,0,0,0,0,3Z"/><path class="cls-21" d="M1617.49,143.68a1.5,1.5,0,0,0,0-3,1.5,1.5,0,0,0,0,3Z"/><rect class="cls-11" x="1277.34" y="265.07" width="23.47" height="23.24" rx="11.11"/><path class="cls-21" d="M1328.78,212.88a18.73,18.73,0,0,0,9.55-4.84c1.36-1.29,2.57-2.72,4-4a29,29,0,0,1,4.7-3.4,1.5,1.5,0,0,0-1.52-2.59,34.76,34.76,0,0,0-4.58,3.24c-1.44,1.21-2.69,2.58-4,3.92A16.35,16.35,0,0,1,1328,210a1.52,1.52,0,0,0-1,1.85,1.53,1.53,0,0,0,1.85,1Z"/><path class="cls-21" d="M1334.28,209a29.59,29.59,0,0,1,3.77-2.29,1.54,1.54,0,0,0,.69-.89,1.5,1.5,0,0,0-2.21-1.7,28.8,28.8,0,0,0-3.76,2.29,1.64,1.64,0,0,0-.69.9,1.5,1.5,0,0,0,1.05,1.84,1.45,1.45,0,0,0,1.15-.15Z"/><path class="cls-8" d="M1455.56,313.73h0a4.5,4.5,0,0,0-4.5-4.5h0a4.51,4.51,0,0,0,4.5-4.5h0a4.5,4.5,0,0,0,4.5,4.5h0A4.49,4.49,0,0,0,1455.56,313.73Z"/><path class="cls-8" d="M1435.11,295.32h0a4.51,4.51,0,0,0-4.5-4.5h0a4.5,4.5,0,0,0,4.5-4.5h0a4.49,4.49,0,0,0,4.5,4.5h0A4.5,4.5,0,0,0,1435.11,295.32Z"/><path class="cls-8" d="M1407.5,182.77h0a4.5,4.5,0,0,0-4.5-4.5h0a4.49,4.49,0,0,0,4.5-4.5h0a4.5,4.5,0,0,0,4.5,4.5h0A4.51,4.51,0,0,0,1407.5,182.77Z"/><path class="cls-8" d="M1387.06,163.35h0a4.5,4.5,0,0,0-4.5-4.5h0a4.51,4.51,0,0,0,4.5-4.5h0a4.5,4.5,0,0,0,4.5,4.5h0A4.49,4.49,0,0,0,1387.06,163.35Z"/><path class="cls-20" d="M1559.75,200.23l9.58-11.26a.7.7,0,0,0-.21-1.06l-2.8-1.45a.63.63,0,0,1-.22-.18l-5.42-6.76a.51.51,0,0,1-.09-.16l-2.33-5.52a.86.86,0,0,0-.1-.16l-5.16-6.44a1,1,0,0,0-1.38-.15l0,0a.9.9,0,0,0-.26,1l1.17,2.83a.05.05,0,0,0,0,0l1.34,2.73a1.3,1.3,0,0,1-.16,1.41l-.17.21a1.21,1.21,0,0,1-1.56.27l-2.16-1.3-.08,0-3.56-2.79-4.73-3.53-3.18-2.44a1.56,1.56,0,0,0-1.92,0l-.08.06a1.3,1.3,0,0,0-.1,1.92l6,6.18a.63.63,0,0,1,0,.84h0a.61.61,0,0,1-.77.15l-5.78-3.15-3.52-1.94a1.71,1.71,0,0,0-2.18.48l-.17.22a1.68,1.68,0,0,0,.37,2.38l3.58,2.55.07,0,5.05,2.71a1,1,0,0,1,.52,1h0a.89.89,0,0,1-1.18.76l-4.1-1.4-.08,0-4-.9a1.25,1.25,0,0,0-1.49,1l0,.23a1.36,1.36,0,0,0,.89,1.58l4.06,1.39,4.08,1.64a1.37,1.37,0,0,1,.82,1.59h0a1.1,1.1,0,0,1-1.43.8l-4-1.38-1.3-.52a1.65,1.65,0,0,0-2.22,1.24l0,.26a1.93,1.93,0,0,0,1.24,2.16l7.92,2.83,5.8,2.21.06,0,6.82,1.93a1,1,0,0,1,.23.12l7.41,5.83A.68.68,0,0,0,1559.75,200.23Z"/></g></g></svg>