<svg xmlns="http://www.w3.org/2000/svg" viewBox="0 0 1700 413"><defs><style>.cls-1{fill:#1c6383;}.cls-2{font-size:51px;font-family:CenturyGothic-Italic, Century Gothic;font-style:italic;letter-spacing:0.1em;}.cls-13,.cls-16,.cls-2,.cls-9{fill:#fff;}.cls-3{font-size:60px;font-family:CenturyGothic-BoldItalic, Century Gothic;font-weight:700;letter-spacing:0.1em;}.cls-4{fill:#de5c1f;stroke:#de5c1f;}.cls-11,.cls-13,.cls-15,.cls-16,.cls-18,.cls-19,.cls-20,.cls-4,.cls-5,.cls-6,.cls-7,.cls-8,.cls-9{stroke-miterlimit:10;}.cls-14,.cls-5{fill:#6a4d00;}.cls-19,.cls-20,.cls-5{stroke:#6a4d00;}.cls-6{fill:#ffe4bf;stroke:#ffe4bf;}.cls-7{fill:#736262;stroke:#736262;}.cls-19,.cls-20,.cls-8{fill:none;}.cls-13,.cls-8{stroke:#626d73;stroke-width:8px;}.cls-18,.cls-9{stroke:#000;}.cls-9{stroke-width:4px;}.cls-10{fill:#00a5e4;}.cls-11{fill:#74c7d9;stroke:#9fc41d;}.cls-12{fill:#9fc41d;}.cls-15,.cls-17{fill:#f4000d;}.cls-15{stroke:#f4000d;}.cls-16{stroke:#fff;}.cls-19{stroke-width:2px;}</style></defs><title>Recurso 23</title><g id="Capa_2" data-name="Capa 2"><g id="Capa_1-2" data-name="Capa 1"><rect class="cls-1" width="1700" height="413"/><text class="cls-2" transform="translate(206.58 101.35)">Hoy el encargado de ir por el <tspan class="cls-3" x="896.19" y="0">AGUA </tspan><tspan x="1120.54" y="0">es:</tspan></text><path class="cls-4" d="M1365.58,385.78c1.1.09,1.69-.41,4.27-2.14,4.59-3.06,4.67-2.78,6.41-4.27.74-.63.38-.39,3.56-3.56,3.46-3.45,3.63-3.49,5-5,2.55-2.81,1.82-2.55,3.56-4.27,1.33-1.32,2.29-2,2.14-2.85-.09-.47-.41-.47-2.14-2.14-.48-.46-.95-.95-1.42-1.42l-1.42-1.42-2.14-2.14-2.14-2.14a25,25,0,0,1-2.13-2.13c-.75-.94-.55-1-1.43-2.14-.43-.56-.4-1.37-1.42-2.13-.75-.56,0-.71-.71-.71-.53,0-1.43,1.45-1.42,3.55a10,10,0,0,1-.72,4.28c-.58,1.28-1,1.07-2.13,2.84-1,1.49-.86,1.85-2.14,4.27a25.16,25.16,0,0,1-2.13,3.56,20.83,20.83,0,0,1-3.56,3.56c-4.45,3.74-6.25,4-6.41,5.7-.1,1.12.57,2.2,1.42,3.56.64,1,1,1.17,2.14,2.85,1,1.48.89,1.53,1.42,2.13A6.16,6.16,0,0,0,1365.58,385.78Z"/><polygon class="cls-5" points="1356.33 375.81 1349.21 380.08 1363.45 395.74 1364.87 385.78 1356.33 375.81"/><polygon class="cls-5" points="1409.72 386.49 1413.99 392.18 1429.65 379.37 1417.55 377.95 1409.72 386.49"/><path class="cls-6" d="M1432.5,262.62l3.56,7.12-26.34,24.2-2.67-4a2,2,0,0,1-.26-.58l-1.25-5a2.85,2.85,0,0,1-.09-1.08l1.42-3.56Z"/><rect class="cls-7" x="1458.84" y="353.03" width="207.16" height="13.53"/><polygon class="cls-7" points="1503.33 367.27 1479.13 367.27 1481.89 372.96 1500.57 372.96 1503.33 367.27"/><polygon class="cls-7" points="1629.69 372.96 1611.18 372.96 1608.34 367.27 1632.54 367.27 1629.69 372.96"/><polyline class="cls-8" points="1455.64 364.78 1455.64 278.64 1448.52 268.67"/><path class="cls-6" d="M1432.91,257.6a5.43,5.43,0,0,1,1-.74,6.5,6.5,0,0,1,1.54-.67,6.64,6.64,0,0,1,2-.33,6.21,6.21,0,0,1,1.81.26,8,8,0,0,1,.77.27,7.48,7.48,0,0,1,1.28.71,6.47,6.47,0,0,1,1.14,1,6,6,0,0,1,.8,1.07,6.84,6.84,0,0,1,.54,1.18,6.13,6.13,0,0,1,.33,1.1,6,6,0,0,1,.07,1.54,7,7,0,0,1-.2,1.41,6.77,6.77,0,0,1-.87,1.95,6.94,6.94,0,0,1-1.31,1.47,6.65,6.65,0,0,1-1.38.91,6.45,6.45,0,0,1-1.17.43,6.75,6.75,0,0,1-1.47.24,5.92,5.92,0,0,1-1.92-.17,5.85,5.85,0,0,1-1.3-.54,7,7,0,0,1-1.51-1,6.09,6.09,0,0,1-1.48-1.74,6.33,6.33,0,0,1-.67-1.91,7.06,7.06,0,0,1-.13-1.75,6.66,6.66,0,0,1,.27-1.64,5.27,5.27,0,0,1,.4-1,6.81,6.81,0,0,1,.7-1.07A6.5,6.5,0,0,1,1432.91,257.6Z"/><path class="cls-9" d="M1442.18,262.74a4.25,4.25,0,0,1,.67-.5,5.16,5.16,0,0,1,2.41-.69,4.14,4.14,0,0,1,1.24.19,3.51,3.51,0,0,1,.52.18,4.94,4.94,0,0,1,.88.48,4.74,4.74,0,0,1,.78.67,4.15,4.15,0,0,1,.55.73,4.78,4.78,0,0,1,.36.8,3.73,3.73,0,0,1,.23.76,4,4,0,0,1,0,1.06,4.78,4.78,0,0,1-.14,1,4.36,4.36,0,0,1-.6,1.33,4.5,4.5,0,0,1-.89,1,5.1,5.1,0,0,1-.94.62,6.62,6.62,0,0,1-.8.3,5.62,5.62,0,0,1-1,.16,4.18,4.18,0,0,1-1.31-.12,4.81,4.81,0,0,1-.9-.36,5.55,5.55,0,0,1-1-.67,4.05,4.05,0,0,1-1.47-2.5,5.14,5.14,0,0,1-.09-1.19,4.88,4.88,0,0,1,.19-1.13,4.05,4.05,0,0,1,.27-.71,5.42,5.42,0,0,1,.48-.73A4.85,4.85,0,0,1,1442.18,262.74Z"/><path class="cls-10" d="M1647.15,166.43c1.42-1.48.09-4.88-2-10.21a49,49,0,0,0-5.1-10.21,49.58,49.58,0,0,0-10-10.87,75.32,75.32,0,0,0-11.31-7.54c-5.64-3.32-6.16-3.07-10.88-6a52.83,52.83,0,0,1-10.42-7.77c-3-3-5.61-5.58-6.88-9.76-.64-2.08-.72-4.35-.89-8.88-.09-2.34,0-1.89,0-8.43,0-3.37-.06-4.45,0-6.88,0-.49.06-2.55.22-5.32.21-3.61.31-5.42.45-6.44.42-3.22.94-4.5.22-5.1-.54-.45-1.1,0-3.11.22s-2.16-.12-6-.22c-1.29,0-2.19,0-3.55,0s-2.22,0-6,.22c-4.35.19-4.79.2-5.55.22-1.74,0-3.12.07-4.88,0-3.13-.12-3-.37-5.33-.44-3-.09-3.24.34-7.76.44h-9.54c-2,0-4,.12-6,0-1.49-.09-2-.19-2.45.22-.74.75.16,2,0,4.88-.07,1.35-.28,1.35-.44,3.11a25.62,25.62,0,0,0,0,4.22c.23,4,0,3.54.22,8.43.19,3.73.3,3.31.45,6.43a74,74,0,0,1,0,9.32c-.31,4.24-.46,6.35-1.56,8.43s-2.62,3.43-5.1,5.55a45.11,45.11,0,0,1-6,4.22c-2.16,1.35-3.78,2.22-6.66,3.77-4.27,2.3-4.59,2.3-7.1,3.77-2.3,1.35-2.24.83-5.71,3-5.56,3.48-5.75,3.82-7.6,5.43a48.61,48.61,0,0,0-5.49,4.94,26,26,0,0,0-4,5.05,23.85,23.85,0,0,0-3.33,6.66,40.72,40.72,0,0,0-1.78,6.65c-.66,3.32-.12,2.18-.88,6.88-.28,1.71-.43,2.37,0,2.89.79,1,2.61.26,6-.23.8-.11,3.12-.22,7.76-.44,3.27-.15,5.72-.19,7.77-.22,2.43,0,5.21-.08,8.87,0,3.49.07,4.4.19,8.21.22h4.66c4.54,0,6.81,0,7.55,0,3.85,0,6.82.13,9.32.22,6.1.22,6.7.38,9.32.22,2.3-.13,2.77-.32,5.54-.44s4.62-.06,6.66,0c4.28.13,4.53.34,8.43.44,1.77,0,1.07,0,6.44,0,4.82,0,5.54.07,8,0,1.71,0,1.42-.07,5.32-.22,4.63-.18,4.23-.11,6.44-.22,4.65-.23,5.21-.47,8.21-.44,2.24,0,2,.15,4.66.22,3.9.1,5-.18,8.87-.22,4.58-.06,4,.31,7.77.22,4.29-.11,4.73-.58,9.1-.67,3-.06,5.36.11,6.87.22C1644.4,166.51,1646.07,167.56,1647.15,166.43Z"/><rect class="cls-10" x="1476.37" y="164.63" width="172.6" height="187.72" rx="12.83"/><rect class="cls-11" x="1469.42" y="293.04" width="186.5" height="38.05" rx="4.63"/><rect class="cls-11" x="1469.89" y="228.13" width="186.5" height="38.05" rx="4.63"/><rect class="cls-11" x="1469.89" y="164.06" width="186.5" height="38.05" rx="4.63"/><rect class="cls-12" x="1526.42" y="62.78" width="66.64" height="29.16"/><path class="cls-13" d="M1613.46,375.26a9.52,9.52,0,0,1,1.48-1.13,10.2,10.2,0,0,1,2.36-1,9.7,9.7,0,0,1,3-.51,9.54,9.54,0,0,1,2.77.41,9.67,9.67,0,0,1,1.17.41,10.68,10.68,0,0,1,2,1.07A9.71,9.71,0,0,1,1628,376a8.9,8.9,0,0,1,1.23,1.64,10.34,10.34,0,0,1,.82,1.79,9.52,9.52,0,0,1,.51,1.69,9.38,9.38,0,0,1,.11,2.36,10.66,10.66,0,0,1-.31,2.15,10.1,10.1,0,0,1-1.33,3,10.59,10.59,0,0,1-2,2.25,9.9,9.9,0,0,1-2.1,1.38,9.55,9.55,0,0,1-1.79.67,10.75,10.75,0,0,1-2.26.36,8.89,8.89,0,0,1-2.92-.26,9,9,0,0,1-2-.82,10.74,10.74,0,0,1-2.31-1.48,9.17,9.17,0,0,1-3.28-5.59,10.7,10.7,0,0,1-.2-2.66,10.27,10.27,0,0,1,.41-2.51,8.67,8.67,0,0,1,.61-1.59,15,15,0,0,1,2.31-3.07Z"/><path class="cls-13" d="M1483.89,375.26a9.79,9.79,0,0,1,1.49-1.13,10,10,0,0,1,2.35-1,9.72,9.72,0,0,1,3-.51,10.83,10.83,0,0,1,3.94.82,10.68,10.68,0,0,1,2,1.07,10.47,10.47,0,0,1,1.74,1.49,9.42,9.42,0,0,1,1.23,1.64,10.34,10.34,0,0,1,.82,1.79,9.52,9.52,0,0,1,.51,1.69,8.88,8.88,0,0,1,.1,2.36,10,10,0,0,1-.31,2.15,10.1,10.1,0,0,1-1.33,3,10.46,10.46,0,0,1-2,2.25,9.9,9.9,0,0,1-2.1,1.38,10.08,10.08,0,0,1-1.8.67,10.63,10.63,0,0,1-2.25.36,8.88,8.88,0,0,1-2.92-.26,9.13,9.13,0,0,1-2-.82,11,11,0,0,1-2.3-1.48,9.29,9.29,0,0,1-2.26-2.67,9.41,9.41,0,0,1-1-2.92,10.85,10.85,0,0,1,.2-5.17,8.89,8.89,0,0,1,.62-1.59,11,11,0,0,1,1.07-1.64A10.34,10.34,0,0,1,1483.89,375.26Z"/><path class="cls-6" d="M1330,254.79a37.56,37.56,0,0,0,2.85,5.69,47.67,47.67,0,0,0,5,6.41c2.89,3.37,4.34,5.05,5.69,6.41a44.39,44.39,0,0,0,12.82,9.25c7.37,3.41,13.94,3.49,19.22,3.56a50,50,0,0,0,13.53-1.42,49.23,49.23,0,0,0,13.52-5.7,51.06,51.06,0,0,0,13.53-12.1,48.21,48.21,0,0,0,10-21.35,46.67,46.67,0,0,0-2.13-24.92c-.88-2.24-5.1-13.05-12.82-17.8C1385,186.74,1326.43,245.07,1330,254.79Z"/><path class="cls-14" d="M1367.36,220.26c.35.39.34,3.14,0,6.41-.2,2-.71,1.73-.71,5.7a18,18,0,0,0,.71,5.69,19.27,19.27,0,0,0,2.14,5.7,18,18,0,0,0,2.13,3.55,30.84,30.84,0,0,0,3.56,3.56c1,.91,1.51,1.21,1.43,1.43-.18.43-2.23.53-5.7,0-3.82-.58-3.7-.91-6.4-1.43-4.43-.85-4.79-1.9-6.41-1.42s-2.66,2.43-5,6.41a28.23,28.23,0,0,0-4.27,11.39,27.67,27.67,0,0,0-.71,6.4c.07,2.14-.28,3.38-.71,3.56s-2.8-1.82-4.27-3.56c-2-2.37,0,0-3.56-4.27-2.4-2.88-4.61-4.77-5.7-6.4a19.39,19.39,0,0,1-3.56-5.7C1327,247,1365,217.61,1367.36,220.26Z"/><path class="cls-15" d="M1372.7,214.21c8.43-3.16,20.72-7.79,35.6-13.52,25.3-9.75,28-11.06,27.76-12.11-.55-2.73-20.6-3.43-35.59,4.28-1.3.66-3.13,1.68-5.27,3s-4.57,2.95-7.1,4.81a113.83,113.83,0,0,0-10.91,9.27c-7.22,6.8-10.56,10.47-17.3,17.09s-17.06,16.59-29.9,28.47l-10.43-20.86a6.72,6.72,0,0,1-.64-4l1.46-9.78a7.23,7.23,0,0,1,2-4L1361,178.27a8.42,8.42,0,0,1,10.27-1.28L1399,193.57"/><path class="cls-16" d="M1391.28,284.86l7.79-2.88.29-.12L1405,279l.72,8.81,1.44,3.67,1.44,2.93,1.45,2.94,2.88,4.4h-9.38c-.82.22-.72-.13-.72.73l-.72,1.47-.59,1.05a1.65,1.65,0,0,1-.43.72h0a10.15,10.15,0,0,0-1.87,2.63h0l-.72,1.47h0a9.89,9.89,0,0,1-1.86,2.63l-.3.3-.72.74h0a6.21,6.21,0,0,1-1.64,1.19l-.2.11a1.52,1.52,0,0,1-.69.16h0a4.45,4.45,0,0,1-2-.49l-.47-.24-.9-.45a1.9,1.9,0,0,1-.82-.84h0a14.36,14.36,0,0,1-.76-1.87l0-.07a18.79,18.79,0,0,0-.93-2.28l-.18-.36-.07-.15a7,7,0,0,1-.65-3.52h0v-7.33h0a13.85,13.85,0,0,1,.68-4.29l0-.12.34-1a16.21,16.21,0,0,1,.92-2.24h0a5.88,5.88,0,0,0,.31-.79l.14-.4a9.29,9.29,0,0,0,.45-2.86h0Z"/><path class="cls-4" d="M1385.16,285.76c-1.13.48,0,1.88,0,5,0,.63-.24,2.32-.71,5.7s-.52,3.49-.71,5c-.4,3-.44,4-.72,6.41-.38,3.39-.48,2.88-1.42,9.25-.45,3.09-1.55,6.14-1.42,9.25,0,1-.9,2-1.78,3.21a30.13,30.13,0,0,1-1.78,2.49c-.65.76-.91,1.69-1.43,3.56a24.62,24.62,0,0,0-.71,3.56,14.12,14.12,0,0,0,0,5,13.34,13.34,0,0,0,1.43,3.56,23,23,0,0,0,2.84,4.27c.75.9.89.93,3.56,3.56,2.19,2.15,1.84,1.87,3.56,3.56,2.57,2.51,3.09,2.88,4.27,4.27,1,1.22.82,1.16,2.14,2.85,2,2.51,2.51,2.74,5,5.7,1.24,1.47.93,1.21,2.85,3.55s2.14,2.5,3.56,4.28c1.25,1.57,1.63,2.15,2.85,3.56,2.16,2.51,2.86,2.9,3.56,2.84.47,0,1-.5,2.13-1.42a15.8,15.8,0,0,0,2.14-2.14,7.39,7.39,0,0,0,1.42-2.13c.42-1.15.16-2,0-3.56-.27-2.76.37-2.87,0-4.27-.27-1-.54-1-1.78-3.21-1.35-2.41-1.12-2.65-2.13-4.27s-1.14-1.3-2.85-3.56a31.48,31.48,0,0,1-2.85-4.27c-1.12-2.08-.73-2.07-2.14-5-1.12-2.33-1.53-2.67-1.42-3.56.17-1.29,1.17-1.66,2.85-3.56a20.76,20.76,0,0,0,2.85-4.27,18.63,18.63,0,0,0,2.13-6.41c.08-.63,0-.46,0-5V308.18a26.47,26.47,0,0,1,0-4.27c.16-1,.41-1.75,0-2.14s-.64-.08-2.13,0c-1.19.07-2.43,0-2.85,0-1.12,0-1.18-.1-1.43,0-.83.38-.76,1.42-1.42,2.85-.57,1.24-.84.92-2.13,2.85s-1,2.15-2.14,3.56a9.94,9.94,0,0,1-2.14,2.13,5.62,5.62,0,0,1-3.56,1.43,5.07,5.07,0,0,1-3.55-2.14c-.74-1-.62-1.52-1.43-4.27-.85-2.9-1.11-2.72-1.42-4.27-.13-.61-.3-1.66,0-5.7a38.17,38.17,0,0,1,.71-6.4c1.2-4,2.8-5.33,2.14-6.41S1387.65,284.69,1385.16,285.76Z"/><path class="cls-17" d="M1379,210a1.5,1.5,0,0,0,0-3,1.5,1.5,0,0,0,0,3Z"/><path class="cls-17" d="M1376.11,212.39a1.5,1.5,0,0,0,0-3,1.5,1.5,0,0,0,0,3Z"/><path class="cls-17" d="M1377.23,211.9a1.5,1.5,0,0,0,0-3,1.5,1.5,0,0,0,0,3Z"/><path class="cls-17" d="M1378.41,211.28a1.5,1.5,0,0,0,0-3,1.5,1.5,0,0,0,0,3Z"/><path class="cls-17" d="M1380.75,209.45a7.74,7.74,0,0,0,4-2.54,18,18,0,0,1,3.51-3.11c2.85-2.15,5.71-4.27,8.65-6.28,1.58-1.09.08-3.69-1.52-2.59-2.85,1.95-5.63,4-8.4,6.09a27.52,27.52,0,0,0-3.72,3c-.48.52-.86,1.14-1.37,1.62a4.93,4.93,0,0,1-1.93.92c-1.83.6-1,3.5.79,2.9Z"/><path class="cls-17" d="M1382.43,207l1.48-1a1.12,1.12,0,0,0,.42-.39,1,1,0,0,0,.26-.51,1,1,0,0,0,0-.59,1.12,1.12,0,0,0-.18-.56l-.23-.31a1.57,1.57,0,0,0-.66-.38l-.4-.06a1.58,1.58,0,0,0-.76.21l-1.47,1a1,1,0,0,0-.42.39,1.14,1.14,0,0,0-.27.51,1.22,1.22,0,0,0,0,.6,1.12,1.12,0,0,0,.18.55l.24.31a1.45,1.45,0,0,0,.66.38l.4.06a1.51,1.51,0,0,0,.75-.21Z"/><path class="cls-18" d="M1397.33,223.81a7.15,7.15,0,0,1,1-1.2,5.48,5.48,0,0,1,1.55-1.1,4.39,4.39,0,0,1,2-.55,4.22,4.22,0,0,1,1.82.44,5.73,5.73,0,0,1,.78.44,7.26,7.26,0,0,1,1.28,1.15,9.13,9.13,0,0,1,1.15,1.59,11.46,11.46,0,0,1,.81,1.75,15.23,15.23,0,0,1,.54,1.91,15,15,0,0,1,.33,1.81,14.8,14.8,0,0,1,.07,2.52,18.13,18.13,0,0,1-.2,2.29,14.86,14.86,0,0,1-.88,3.18,11.83,11.83,0,0,1-1.31,2.41,7.12,7.12,0,0,1-1.39,1.47,5.11,5.11,0,0,1-1.18.72,4.84,4.84,0,0,1-1.48.38,3.76,3.76,0,0,1-1.93-.27,5.27,5.27,0,0,1-1.31-.88,8.42,8.42,0,0,1-1.52-1.59,9.88,9.88,0,0,1-1.49-2.84,14.58,14.58,0,0,1-.67-3.12,20.37,20.37,0,0,1-.14-2.85,18.56,18.56,0,0,1,.27-2.68,14,14,0,0,1,.41-1.7,12.76,12.76,0,0,1,.71-1.75A11.12,11.12,0,0,1,1397.33,223.81Z"/><path class="cls-19" d="M1385.87,233.79a13.53,13.53,0,0,1-.42-3.63,14.25,14.25,0,0,1,.69-4.19,14.49,14.49,0,0,1,2.91-5.3,15.31,15.31,0,0,1,3.94-3.25"/><path class="cls-20" d="M1409.65,263.25a14.19,14.19,0,0,1-3.4,1.34,15.21,15.21,0,0,1-10.1-1,15.23,15.23,0,0,1-4.15-3"/></g></g></svg>